<svg id="visual" viewBox="0 0 900 300" width="900" height="300" xmlns="http://www.w3.org/2000/svg" xmlns:xlink="http://www.w3.org/1999/xlink" version="1.1"><rect x="0" y="0" width="900" height="300" fill="#67032B"></rect><path d="M0 81L10 79.8C20 78.7 40 76.3 60 76.7C80 77 100 80 120 80.3C140 80.7 160 78.3 180 76.2C200 74 220 72 240 68.5C260 65 280 60 300 56.8C320 53.7 340 52.3 360 48.7C380 45 400 39 420 45.2C440 51.3 460 69.7 480 77.8C500 86 520 84 540 85C560 86 580 90 600 89C620 88 640 82 660 80C680 78 700 80 720 81.7C740 83.3 760 84.7 780 84C800 83.3 820 80.7 840 80.2C860 79.7 880 81.3 890 82.2L900 83L900 301L890 301C880 301 860 301 840 301C820 301 800 301 780 301C760 301 740 301 720 301C700 301 680 301 660 301C640 301 620 301 600 301C580 301 560 301 540 301C520 301 500 301 480 301C460 301 440 301 420 301C400 301 380 301 360 301C340 301 320 301 300 301C280 301 260 301 240 301C220 301 200 301 180 301C160 301 140 301 120 301C100 301 80 301 60 301C40 301 20 301 10 301L0 301Z" fill="#67032b"></path><path d="M0 76L10 81.3C20 86.7 40 97.3 60 97.5C80 97.7 100 87.3 120 87.8C140 88.3 160 99.7 180 101.8C200 104 220 97 240 95.3C260 93.7 280 97.3 300 100.2C320 103 340 105 360 99.7C380 94.3 400 81.7 420 81.8C440 82 460 95 480 101.5C500 108 520 108 540 102.3C560 96.7 580 85.3 600 79.2C620 73 640 72 660 70.3C680 68.7 700 66.3 720 74.7C740 83 760 102 780 108.8C800 115.7 820 110.3 840 110.2C860 110 880 115 890 117.5L900 120L900 301L890 301C880 301 860 301 840 301C820 301 800 301 780 301C760 301 740 301 720 301C700 301 680 301 660 301C640 301 620 301 600 301C580 301 560 301 540 301C520 301 500 301 480 301C460 301 440 301 420 301C400 301 380 301 360 301C340 301 320 301 300 301C280 301 260 301 240 301C220 301 200 301 180 301C160 301 140 301 120 301C100 301 80 301 60 301C40 301 20 301 10 301L0 301Z" fill="#7c102e"></path><path d="M0 95L10 95.7C20 96.3 40 97.7 60 98.5C80 99.3 100 99.7 120 105.3C140 111 160 122 180 128.5C200 135 220 137 240 134.2C260 131.3 280 123.7 300 124.3C320 125 340 134 360 133.3C380 132.7 400 122.3 420 113.5C440 104.7 460 97.3 480 95C500 92.7 520 95.3 540 97.2C560 99 580 100 600 98.8C620 97.7 640 94.3 660 95.8C680 97.3 700 103.7 720 108C740 112.3 760 114.7 780 117.8C800 121 820 125 840 122.5C860 120 880 111 890 106.5L900 102L900 301L890 301C880 301 860 301 840 301C820 301 800 301 780 301C760 301 740 301 720 301C700 301 680 301 660 301C640 301 620 301 600 301C580 301 560 301 540 301C520 301 500 301 480 301C460 301 440 301 420 301C400 301 380 301 360 301C340 301 320 301 300 301C280 301 260 301 240 301C220 301 200 301 180 301C160 301 140 301 120 301C100 301 80 301 60 301C40 301 20 301 10 301L0 301Z" fill="#911e30"></path><path d="M0 123L10 123.7C20 124.3 40 125.7 60 129C80 132.3 100 137.7 120 142.2C140 146.7 160 150.3 180 152.7C200 155 220 156 240 155.2C260 154.3 280 151.7 300 145.3C320 139 340 129 360 128.2C380 127.3 400 135.7 420 135.8C440 136 460 128 480 129.8C500 131.7 520 143.3 540 150.7C560 158 580 161 600 161.7C620 162.3 640 160.7 660 160.7C680 160.7 700 162.3 720 163.2C740 164 760 164 780 163.8C800 163.7 820 163.3 840 155.5C860 147.7 880 132.3 890 124.7L900 117L900 301L890 301C880 301 860 301 840 301C820 301 800 301 780 301C760 301 740 301 720 301C700 301 680 301 660 301C640 301 620 301 600 301C580 301 560 301 540 301C520 301 500 301 480 301C460 301 440 301 420 301C400 301 380 301 360 301C340 301 320 301 300 301C280 301 260 301 240 301C220 301 200 301 180 301C160 301 140 301 120 301C100 301 80 301 60 301C40 301 20 301 10 301L0 301Z" fill="#a52d2f"></path><path d="M0 178L10 179.7C20 181.3 40 184.7 60 179.2C80 173.7 100 159.3 120 155.8C140 152.3 160 159.7 180 160.2C200 160.7 220 154.3 240 153.5C260 152.7 280 157.3 300 163.7C320 170 340 178 360 179.3C380 180.7 400 175.3 420 169.8C440 164.3 460 158.7 480 160.8C500 163 520 173 540 175C560 177 580 171 600 164.5C620 158 640 151 660 147.7C680 144.3 700 144.7 720 149.7C740 154.7 760 164.3 780 167.2C800 170 820 166 840 161.3C860 156.7 880 151.3 890 148.7L900 146L900 301L890 301C880 301 860 301 840 301C820 301 800 301 780 301C760 301 740 301 720 301C700 301 680 301 660 301C640 301 620 301 600 301C580 301 560 301 540 301C520 301 500 301 480 301C460 301 440 301 420 301C400 301 380 301 360 301C340 301 320 301 300 301C280 301 260 301 240 301C220 301 200 301 180 301C160 301 140 301 120 301C100 301 80 301 60 301C40 301 20 301 10 301L0 301Z" fill="#b83d2d"></path><path d="M0 192L10 188.8C20 185.7 40 179.3 60 180.8C80 182.3 100 191.7 120 196.8C140 202 160 203 180 202.7C200 202.3 220 200.7 240 199C260 197.3 280 195.7 300 197C320 198.3 340 202.7 360 201.8C380 201 400 195 420 195.2C440 195.3 460 201.7 480 199C500 196.3 520 184.7 540 181.2C560 177.7 580 182.3 600 183C620 183.7 640 180.3 660 177.7C680 175 700 173 720 175.2C740 177.3 760 183.7 780 184.5C800 185.3 820 180.7 840 180.7C860 180.7 880 185.3 890 187.7L900 190L900 301L890 301C880 301 860 301 840 301C820 301 800 301 780 301C760 301 740 301 720 301C700 301 680 301 660 301C640 301 620 301 600 301C580 301 560 301 540 301C520 301 500 301 480 301C460 301 440 301 420 301C400 301 380 301 360 301C340 301 320 301 300 301C280 301 260 301 240 301C220 301 200 301 180 301C160 301 140 301 120 301C100 301 80 301 60 301C40 301 20 301 10 301L0 301Z" fill="#c94f29"></path><path d="M0 213L10 211.8C20 210.7 40 208.3 60 207C80 205.7 100 205.3 120 208C140 210.7 160 216.3 180 217.2C200 218 220 214 240 211.5C260 209 280 208 300 206.8C320 205.7 340 204.3 360 206.5C380 208.7 400 214.3 420 214.3C440 214.3 460 208.7 480 206.8C500 205 520 207 540 208.2C560 209.3 580 209.7 600 208C620 206.3 640 202.7 660 203.7C680 204.7 700 210.3 720 214.3C740 218.3 760 220.7 780 224.2C800 227.7 820 232.3 840 233.8C860 235.3 880 233.7 890 232.8L900 232L900 301L890 301C880 301 860 301 840 301C820 301 800 301 780 301C760 301 740 301 720 301C700 301 680 301 660 301C640 301 620 301 600 301C580 301 560 301 540 301C520 301 500 301 480 301C460 301 440 301 420 301C400 301 380 301 360 301C340 301 320 301 300 301C280 301 260 301 240 301C220 301 200 301 180 301C160 301 140 301 120 301C100 301 80 301 60 301C40 301 20 301 10 301L0 301Z" fill="#d96122"></path><path d="M0 247L10 246.2C20 245.3 40 243.7 60 240.8C80 238 100 234 120 233.3C140 232.7 160 235.3 180 235C200 234.7 220 231.3 240 233.3C260 235.3 280 242.7 300 246.8C320 251 340 252 360 253.3C380 254.7 400 256.3 420 253.3C440 250.3 460 242.7 480 241.5C500 240.3 520 245.7 540 245.7C560 245.7 580 240.3 600 240.3C620 240.3 640 245.7 660 249.7C680 253.7 700 256.3 720 256.2C740 256 760 253 780 251.3C800 249.7 820 249.3 840 248.3C860 247.3 880 245.7 890 244.8L900 244L900 301L890 301C880 301 860 301 840 301C820 301 800 301 780 301C760 301 740 301 720 301C700 301 680 301 660 301C640 301 620 301 600 301C580 301 560 301 540 301C520 301 500 301 480 301C460 301 440 301 420 301C400 301 380 301 360 301C340 301 320 301 300 301C280 301 260 301 240 301C220 301 200 301 180 301C160 301 140 301 120 301C100 301 80 301 60 301C40 301 20 301 10 301L0 301Z" fill="#e67518"></path><path d="M0 273L10 274.3C20 275.7 40 278.3 60 276.5C80 274.7 100 268.3 120 266.5C140 264.7 160 267.3 180 266.8C200 266.3 220 262.7 240 263.7C260 264.7 280 270.3 300 272.7C320 275 340 274 360 272.2C380 270.3 400 267.7 420 266C440 264.3 460 263.7 480 263C500 262.3 520 261.7 540 261.3C560 261 580 261 600 261.5C620 262 640 263 660 265C680 267 700 270 720 271.7C740 273.3 760 273.7 780 273.3C800 273 820 272 840 271C860 270 880 269 890 268.5L900 268L900 301L890 301C880 301 860 301 840 301C820 301 800 301 780 301C760 301 740 301 720 301C700 301 680 301 660 301C640 301 620 301 600 301C580 301 560 301 540 301C520 301 500 301 480 301C460 301 440 301 420 301C400 301 380 301 360 301C340 301 320 301 300 301C280 301 260 301 240 301C220 301 200 301 180 301C160 301 140 301 120 301C100 301 80 301 60 301C40 301 20 301 10 301L0 301Z" fill="#f18a03"></path></svg>