<svg id="visual" viewBox="0 0 900 300" width="900" height="300" xmlns="http://www.w3.org/2000/svg" xmlns:xlink="http://www.w3.org/1999/xlink" version="1.1"><rect x="0" y="0" width="900" height="300" fill="#c99a4a"></rect><path d="M0 191L10.7 195.8C21.3 200.7 42.7 210.3 64.2 220.3C85.7 230.3 107.3 240.7 128.8 241.8C150.3 243 171.7 235 193 234.3C214.3 233.7 235.7 240.3 257 245.5C278.3 250.7 299.7 254.3 321.2 252.7C342.7 251 364.3 244 385.8 235.7C407.3 227.3 428.7 217.7 450 213.8C471.3 210 492.7 212 514.2 216C535.7 220 557.3 226 578.8 222.3C600.3 218.7 621.7 205.3 643 200.2C664.3 195 685.7 198 707 206C728.3 214 749.7 227 771.2 237.8C792.7 248.7 814.3 257.3 835.8 256.5C857.3 255.7 878.7 245.3 889.3 240.2L900 235L900 0L889.3 0C878.7 0 857.3 0 835.8 0C814.3 0 792.7 0 771.2 0C749.7 0 728.3 0 707 0C685.7 0 664.3 0 643 0C621.7 0 600.3 0 578.8 0C557.3 0 535.7 0 514.2 0C492.7 0 471.3 0 450 0C428.7 0 407.3 0 385.8 0C364.3 0 342.7 0 321.2 0C299.7 0 278.3 0 257 0C235.7 0 214.3 0 193 0C171.7 0 150.3 0 128.8 0C107.3 0 85.7 0 64.2 0C42.7 0 21.3 0 10.7 0L0 0Z" fill="#c59042"></path><path d="M0 182L10.7 192.2C21.3 202.3 42.7 222.7 64.2 228.2C85.7 233.7 107.3 224.3 128.8 222.8C150.3 221.3 171.7 227.7 193 230C214.3 232.3 235.7 230.7 257 227.3C278.3 224 299.7 219 321.2 216C342.7 213 364.3 212 385.8 210.5C407.3 209 428.7 207 450 202.3C471.3 197.7 492.7 190.3 514.2 188.2C535.7 186 557.3 189 578.8 190.7C600.3 192.3 621.7 192.7 643 199.8C664.3 207 685.7 221 707 225.8C728.3 230.7 749.7 226.3 771.2 223.3C792.7 220.3 814.3 218.7 835.8 218C857.3 217.3 878.7 217.7 889.3 217.8L900 218L900 0L889.3 0C878.7 0 857.3 0 835.8 0C814.3 0 792.7 0 771.2 0C749.7 0 728.3 0 707 0C685.7 0 664.3 0 643 0C621.7 0 600.3 0 578.8 0C557.3 0 535.7 0 514.2 0C492.7 0 471.3 0 450 0C428.7 0 407.3 0 385.8 0C364.3 0 342.7 0 321.2 0C299.7 0 278.3 0 257 0C235.7 0 214.3 0 193 0C171.7 0 150.3 0 128.8 0C107.3 0 85.7 0 64.2 0C42.7 0 21.3 0 10.7 0L0 0Z" fill="#c37b46"></path><path d="M0 193L10.7 188.7C21.3 184.3 42.7 175.7 64.2 171.8C85.7 168 107.3 169 128.8 176.5C150.3 184 171.7 198 193 199.2C214.3 200.3 235.7 188.7 257 179C278.3 169.3 299.7 161.7 321.2 168.8C342.7 176 364.3 198 385.8 200.5C407.3 203 428.7 186 450 181.3C471.3 176.7 492.7 184.3 514.2 187.8C535.7 191.3 557.3 190.7 578.8 193.7C600.3 196.7 621.7 203.3 643 204.2C664.3 205 685.7 200 707 196.8C728.3 193.7 749.7 192.3 771.2 185.2C792.7 178 814.3 165 835.8 167C857.3 169 878.7 186 889.3 194.5L900 203L900 0L889.3 0C878.7 0 857.3 0 835.8 0C814.3 0 792.7 0 771.2 0C749.7 0 728.3 0 707 0C685.7 0 664.3 0 643 0C621.7 0 600.3 0 578.8 0C557.3 0 535.7 0 514.2 0C492.7 0 471.3 0 450 0C428.7 0 407.3 0 385.8 0C364.3 0 342.7 0 321.2 0C299.7 0 278.3 0 257 0C235.7 0 214.3 0 193 0C171.7 0 150.3 0 128.8 0C107.3 0 85.7 0 64.2 0C42.7 0 21.3 0 10.7 0L0 0Z" fill="#bb684c"></path><path d="M0 167L10.7 162.5C21.3 158 42.7 149 64.2 152.8C85.7 156.7 107.3 173.3 128.8 172.3C150.3 171.3 171.7 152.7 193 152C214.3 151.3 235.7 168.7 257 171.2C278.3 173.7 299.7 161.3 321.2 163.5C342.7 165.7 364.3 182.3 385.8 191.3C407.3 200.3 428.7 201.7 450 196.7C471.3 191.7 492.7 180.3 514.2 179.8C535.7 179.3 557.3 189.7 578.8 195.3C600.3 201 621.7 202 643 202.2C664.3 202.3 685.7 201.7 707 192.7C728.3 183.7 749.7 166.3 771.2 159.2C792.7 152 814.3 155 835.8 153.5C857.3 152 878.7 146 889.3 143L900 140L900 0L889.3 0C878.7 0 857.3 0 835.8 0C814.3 0 792.7 0 771.2 0C749.7 0 728.3 0 707 0C685.7 0 664.3 0 643 0C621.7 0 600.3 0 578.8 0C557.3 0 535.7 0 514.2 0C492.7 0 471.3 0 450 0C428.7 0 407.3 0 385.8 0C364.3 0 342.7 0 321.2 0C299.7 0 278.3 0 257 0C235.7 0 214.3 0 193 0C171.7 0 150.3 0 128.8 0C107.3 0 85.7 0 64.2 0C42.7 0 21.3 0 10.7 0L0 0Z" fill="#ad5853"></path><path d="M0 166L10.7 158.3C21.3 150.7 42.7 135.3 64.2 130.2C85.7 125 107.3 130 128.8 133.3C150.3 136.7 171.7 138.3 193 146.5C214.3 154.7 235.7 169.3 257 170.7C278.3 172 299.7 160 321.2 156.2C342.7 152.3 364.3 156.7 385.8 160.2C407.3 163.7 428.7 166.3 450 159.8C471.3 153.3 492.7 137.7 514.2 138.2C535.7 138.7 557.3 155.3 578.8 165.5C600.3 175.7 621.7 179.3 643 170.3C664.3 161.3 685.7 139.7 707 133.8C728.3 128 749.7 138 771.2 141.3C792.7 144.7 814.3 141.3 835.8 145.2C857.3 149 878.7 160 889.3 165.5L900 171L900 0L889.3 0C878.7 0 857.3 0 835.8 0C814.3 0 792.7 0 771.2 0C749.7 0 728.3 0 707 0C685.7 0 664.3 0 643 0C621.7 0 600.3 0 578.8 0C557.3 0 535.7 0 514.2 0C492.7 0 471.3 0 450 0C428.7 0 407.3 0 385.8 0C364.3 0 342.7 0 321.2 0C299.7 0 278.3 0 257 0C235.7 0 214.3 0 193 0C171.7 0 150.3 0 128.8 0C107.3 0 85.7 0 64.2 0C42.7 0 21.3 0 10.7 0L0 0Z" fill="#9b4b58"></path><path d="M0 140L10.7 137.2C21.3 134.3 42.7 128.7 64.2 126.8C85.7 125 107.3 127 128.8 127.8C150.3 128.7 171.7 128.3 193 129.3C214.3 130.3 235.7 132.7 257 131.7C278.3 130.7 299.7 126.3 321.2 121.8C342.7 117.3 364.3 112.7 385.8 109.8C407.3 107 428.7 106 450 109.8C471.3 113.7 492.7 122.3 514.2 130.2C535.7 138 557.3 145 578.8 143.5C600.3 142 621.7 132 643 132C664.3 132 685.7 142 707 145.2C728.3 148.3 749.7 144.7 771.2 143.8C792.7 143 814.3 145 835.8 140.2C857.3 135.3 878.7 123.7 889.3 117.8L900 112L900 0L889.3 0C878.7 0 857.3 0 835.8 0C814.3 0 792.7 0 771.2 0C749.7 0 728.3 0 707 0C685.7 0 664.3 0 643 0C621.7 0 600.3 0 578.8 0C557.3 0 535.7 0 514.2 0C492.7 0 471.3 0 450 0C428.7 0 407.3 0 385.8 0C364.3 0 342.7 0 321.2 0C299.7 0 278.3 0 257 0C235.7 0 214.3 0 193 0C171.7 0 150.3 0 128.8 0C107.3 0 85.7 0 64.2 0C42.7 0 21.3 0 10.7 0L0 0Z" fill="#85415a"></path><path d="M0 102L10.7 104.5C21.3 107 42.7 112 64.2 111.3C85.7 110.7 107.3 104.3 128.8 103.8C150.3 103.3 171.7 108.7 193 112.7C214.3 116.7 235.7 119.3 257 120.8C278.3 122.3 299.7 122.7 321.2 121.7C342.7 120.7 364.3 118.3 385.8 121.3C407.3 124.3 428.7 132.7 450 129.8C471.3 127 492.7 113 514.2 111.5C535.7 110 557.3 121 578.8 125.3C600.3 129.7 621.7 127.3 643 127.5C664.3 127.7 685.7 130.3 707 127.8C728.3 125.3 749.7 117.7 771.2 116.8C792.7 116 814.3 122 835.8 121.5C857.3 121 878.7 114 889.3 110.5L900 107L900 0L889.3 0C878.7 0 857.3 0 835.8 0C814.3 0 792.7 0 771.2 0C749.7 0 728.3 0 707 0C685.7 0 664.3 0 643 0C621.7 0 600.3 0 578.8 0C557.3 0 535.7 0 514.2 0C492.7 0 471.3 0 450 0C428.7 0 407.3 0 385.8 0C364.3 0 342.7 0 321.2 0C299.7 0 278.3 0 257 0C235.7 0 214.3 0 193 0C171.7 0 150.3 0 128.8 0C107.3 0 85.7 0 64.2 0C42.7 0 21.3 0 10.7 0L0 0Z" fill="#6d3959"></path><path d="M0 73L10.7 73.5C21.3 74 42.7 75 64.2 79.8C85.7 84.7 107.3 93.3 128.8 98.5C150.3 103.7 171.7 105.3 193 106.3C214.3 107.3 235.7 107.7 257 104.3C278.3 101 299.7 94 321.2 95.7C342.7 97.3 364.3 107.7 385.8 106.2C407.3 104.7 428.7 91.3 450 84.2C471.3 77 492.7 76 514.2 81.7C535.7 87.3 557.3 99.7 578.8 100.2C600.3 100.7 621.7 89.3 643 84.5C664.3 79.7 685.7 81.3 707 85.7C728.3 90 749.7 97 771.2 100.3C792.7 103.7 814.3 103.3 835.8 98.3C857.3 93.3 878.7 83.7 889.3 78.8L900 74L900 0L889.3 0C878.7 0 857.3 0 835.8 0C814.3 0 792.7 0 771.2 0C749.7 0 728.3 0 707 0C685.7 0 664.3 0 643 0C621.7 0 600.3 0 578.8 0C557.3 0 535.7 0 514.2 0C492.7 0 471.3 0 450 0C428.7 0 407.3 0 385.8 0C364.3 0 342.7 0 321.2 0C299.7 0 278.3 0 257 0C235.7 0 214.3 0 193 0C171.7 0 150.3 0 128.8 0C107.3 0 85.7 0 64.2 0C42.7 0 21.3 0 10.7 0L0 0Z" fill="#533354"></path><path d="M0 73L10.7 76.5C21.3 80 42.7 87 64.2 84.5C85.7 82 107.3 70 128.8 64.5C150.3 59 171.7 60 193 66.5C214.3 73 235.7 85 257 91.2C278.3 97.3 299.7 97.7 321.2 91C342.7 84.3 364.3 70.7 385.8 69.3C407.3 68 428.7 79 450 84.7C471.3 90.3 492.7 90.7 514.2 91.5C535.7 92.3 557.3 93.7 578.8 88.8C600.3 84 621.7 73 643 69.5C664.3 66 685.7 70 707 75.2C728.3 80.3 749.7 86.7 771.2 84C792.7 81.3 814.3 69.7 835.8 68C857.3 66.3 878.7 74.7 889.3 78.8L900 83L900 0L889.3 0C878.7 0 857.3 0 835.8 0C814.3 0 792.7 0 771.2 0C749.7 0 728.3 0 707 0C685.7 0 664.3 0 643 0C621.7 0 600.3 0 578.8 0C557.3 0 535.7 0 514.2 0C492.7 0 471.3 0 450 0C428.7 0 407.3 0 385.8 0C364.3 0 342.7 0 321.2 0C299.7 0 278.3 0 257 0C235.7 0 214.3 0 193 0C171.7 0 150.3 0 128.8 0C107.3 0 85.7 0 64.2 0C42.7 0 21.3 0 10.7 0L0 0Z" fill="#3b2c4b"></path><path d="M0 48L10.7 48.7C21.3 49.3 42.7 50.7 64.2 50.5C85.7 50.3 107.3 48.7 128.8 49C150.3 49.3 171.7 51.7 193 52.3C214.3 53 235.7 52 257 51.2C278.3 50.3 299.7 49.7 321.2 51.3C342.7 53 364.3 57 385.8 56C407.3 55 428.7 49 450 48C471.3 47 492.7 51 514.2 52.2C535.7 53.3 557.3 51.7 578.8 51.5C600.3 51.3 621.7 52.7 643 56.7C664.3 60.7 685.7 67.3 707 66.2C728.3 65 749.7 56 771.2 54.5C792.7 53 814.3 59 835.8 63.8C857.3 68.7 878.7 72.3 889.3 74.2L900 76L900 0L889.3 0C878.7 0 857.3 0 835.8 0C814.3 0 792.7 0 771.2 0C749.7 0 728.3 0 707 0C685.7 0 664.3 0 643 0C621.7 0 600.3 0 578.8 0C557.3 0 535.7 0 514.2 0C492.7 0 471.3 0 450 0C428.7 0 407.3 0 385.8 0C364.3 0 342.7 0 321.2 0C299.7 0 278.3 0 257 0C235.7 0 214.3 0 193 0C171.7 0 150.3 0 128.8 0C107.3 0 85.7 0 64.2 0C42.7 0 21.3 0 10.7 0L0 0Z" fill="#24243e"></path><path d="M0 46L10.7 43.7C21.3 41.3 42.7 36.7 64.2 37.3C85.7 38 107.3 44 128.8 45.7C150.3 47.3 171.7 44.7 193 40.3C214.3 36 235.7 30 257 31.7C278.3 33.3 299.7 42.7 321.2 47.5C342.7 52.3 364.3 52.7 385.8 48.2C407.3 43.7 428.7 34.3 450 34.7C471.3 35 492.7 45 514.2 48.3C535.7 51.7 557.3 48.3 578.8 47.2C600.3 46 621.7 47 643 45.5C664.3 44 685.7 40 707 41.2C728.3 42.3 749.7 48.7 771.2 48.3C792.7 48 814.3 41 835.8 36C857.3 31 878.7 28 889.3 26.5L900 25L900 0L889.3 0C878.7 0 857.3 0 835.8 0C814.3 0 792.7 0 771.2 0C749.7 0 728.3 0 707 0C685.7 0 664.3 0 643 0C621.7 0 600.3 0 578.8 0C557.3 0 535.7 0 514.2 0C492.7 0 471.3 0 450 0C428.7 0 407.3 0 385.8 0C364.3 0 342.7 0 321.2 0C299.7 0 278.3 0 257 0C235.7 0 214.3 0 193 0C171.7 0 150.3 0 128.8 0C107.3 0 85.7 0 64.2 0C42.7 0 21.3 0 10.7 0L0 0Z" fill="#111c30"></path><path d="M0 21L10.7 22.2C21.3 23.3 42.7 25.7 64.2 25.3C85.7 25 107.3 22 128.8 19.5C150.3 17 171.7 15 193 17.7C214.3 20.3 235.7 27.7 257 28C278.3 28.3 299.7 21.7 321.2 21.2C342.7 20.7 364.3 26.3 385.8 25.3C407.3 24.3 428.7 16.7 450 15.5C471.3 14.3 492.7 19.7 514.2 21.3C535.7 23 557.3 21 578.8 18.3C600.3 15.7 621.7 12.3 643 10.7C664.3 9 685.7 9 707 9C728.3 9 749.7 9 771.2 11C792.7 13 814.3 17 835.8 20.3C857.3 23.7 878.7 26.3 889.3 27.7L900 29L900 0L889.3 0C878.7 0 857.3 0 835.8 0C814.3 0 792.7 0 771.2 0C749.7 0 728.3 0 707 0C685.7 0 664.3 0 643 0C621.7 0 600.3 0 578.8 0C557.3 0 535.7 0 514.2 0C492.7 0 471.3 0 450 0C428.7 0 407.3 0 385.8 0C364.3 0 342.7 0 321.2 0C299.7 0 278.3 0 257 0C235.7 0 214.3 0 193 0C171.7 0 150.3 0 128.8 0C107.3 0 85.7 0 64.2 0C42.7 0 21.3 0 10.7 0L0 0Z" fill="#001220"></path></svg>